<?xml version="1.0" encoding="utf-8"?>
<!-- Uploaded to: SVG Repo, www.svgrepo.com, Generator: SVG Repo Mixer Tools -->
<svg width="800px" height="800px" viewBox="0 0 32 32" xmlns="http://www.w3.org/2000/svg" xmlns:xlink="http://www.w3.org/1999/xlink">
  <defs>
    <clipPath id="clip-money">
      <rect width="32" height="32"/>
    </clipPath>
  </defs>
  <g id="money" clip-path="url(#clip-money)">
    <g id="Group_2394" data-name="Group 2394" transform="translate(-260 -260)">
      <g id="Group_2384" data-name="Group 2384">
        <g id="Group_2383" data-name="Group 2383">
          <g id="Group_2382" data-name="Group 2382">
            <path id="Path_3852" data-name="Path 3852" d="M276,271.529c-1.964,0-3.563,2.005-3.563,4.471s1.6,4.471,3.563,4.471,3.562-2.006,3.562-4.471S277.964,271.529,276,271.529Zm0,8.249c-1.582,0-2.869-1.7-2.869-3.778s1.287-3.778,2.869-3.778,2.869,1.7,2.869,3.778S277.582,279.778,276,279.778Z" fill="#344952"/>
          </g>
        </g>
      </g>
      <g id="Group_2387" data-name="Group 2387">
        <g id="Group_2386" data-name="Group 2386">
          <g id="Group_2385" data-name="Group 2385">
            <path id="Path_3853" data-name="Path 3853" d="M277.227,275.746a1.27,1.27,0,0,0-.407-.251q-.228-.087-.612-.192v-1.289a.7.7,0,0,1,.492.514.386.386,0,0,0,.394.329.376.376,0,0,0,.274-.113.369.369,0,0,0,.113-.268.743.743,0,0,0-.076-.307,1.308,1.308,0,0,0-.215-.325,1.118,1.118,0,0,0-.414-.31,1.948,1.948,0,0,0-.568-.137v-.334c0-.17-.067-.254-.2-.254s-.2.086-.2.26v.328a1.529,1.529,0,0,0-.981.4,1.327,1.327,0,0,0-.165,1.543,1.166,1.166,0,0,0,.452.4,3.829,3.829,0,0,0,.694.256v1.441a.845.845,0,0,1-.333-.171.732.732,0,0,1-.187-.246,3.852,3.852,0,0,1-.146-.389.337.337,0,0,0-.133-.183.415.415,0,0,0-.236-.065.388.388,0,0,0-.289.119.375.375,0,0,0-.117.268,1.066,1.066,0,0,0,.087.411,1.355,1.355,0,0,0,.268.4,1.5,1.5,0,0,0,.452.323,1.956,1.956,0,0,0,.634.171v.836a.389.389,0,0,0,.045.211.172.172,0,0,0,.157.068.152.152,0,0,0,.156-.083.726.726,0,0,0,.036-.267v-.771a1.742,1.742,0,0,0,.765-.233,1.314,1.314,0,0,0,.488-.5,1.383,1.383,0,0,0,.166-.662,1.283,1.283,0,0,0-.1-.519A1.16,1.16,0,0,0,277.227,275.746Zm-1.413-.558a1.262,1.262,0,0,1-.415-.227.578.578,0,0,1,.009-.755,1.071,1.071,0,0,1,.406-.2Zm.877,2.027a.857.857,0,0,1-.483.251v-1.358a1.376,1.376,0,0,1,.488.25.529.529,0,0,1,.165.417A.635.635,0,0,1,276.691,277.215Z" fill="#344952"/>
          </g>
        </g>
      </g>
      <g id="Group_2390" data-name="Group 2390">
        <g id="Group_2389" data-name="Group 2389">
          <g id="Group_2388" data-name="Group 2388">
            <path id="Path_3854" data-name="Path 3854" d="M290.708,266.375H261.292a1,1,0,0,0-1,1v17.25a1,1,0,0,0,1,1h29.416a1,1,0,0,0,1-1v-17.25A1,1,0,0,0,290.708,266.375Zm-1,17.25H262.292v-15.25h27.416Z" fill="#344952"/>
          </g>
        </g>
      </g>
      <g id="Group_2393" data-name="Group 2393">
        <g id="Group_2392" data-name="Group 2392">
          <g id="Group_2391" data-name="Group 2391">
            <path id="Path_3855" data-name="Path 3855" d="M263.708,282.587h24.584a.5.5,0,0,0,.5-.5V269.913a.5.5,0,0,0-.5-.5H263.708a.5.5,0,0,0-.5.5v12.174A.5.5,0,0,0,263.708,282.587Zm24.084-4.671a4.2,4.2,0,0,0-3.672,3.671H267.88a4.2,4.2,0,0,0-3.672-3.671v-3.741a4.2,4.2,0,0,0,3.681-3.762H284.12a4.2,4.2,0,0,0,3.672,3.671Zm-23.584,1a3.211,3.211,0,0,1,2.672,2.671h-2.672Zm20.912,2.671a3.211,3.211,0,0,1,2.672-2.671v2.671Zm2.672-8.5a3.211,3.211,0,0,1-2.672-2.671h2.672Zm-20.9-2.671a3.209,3.209,0,0,1-2.681,2.762v-2.762Z" fill="#344952"/>
          </g>
        </g>
      </g>
    </g>
  </g>
</svg>